# xmcd
#
# Track frame offsets: 
#        150
#        25413
#        39195
#        58645
#        74102
#        100946
#        120126
#        136978
#        158552
#        218548
#
# Disc length: 3593 seconds
#
# Revision: 0
# Processed by: cddbd v1.5.1PL0 Copyright (c) Steve Scherf et al.
# Submitted via: ExactAudioCopy v0.95b1
#
DISCID=7f0e070a
DTITLE=Johnny Copeland - Berlin Leverkusen 1994
DYEAR=1900
DGENRE=
TTITLE0=[Till The Day I'll Die]
TTITLE1=[Thinking Of You]
TTITLE2=Catch Up With The Blues
TTITLE3=Learned My Lessons
TTITLE4=Nobody But You
TTITLE5=Everybody Wants A Piece Of Me
TTITLE6=Tired Of Making A Fool Of Myself
TTITLE7=Flyin' High
TTITLE8=Life's Rainbow (Nature Song)
TTITLE9=Kasavubu
EXTD=
EXTT0=
EXTT1=
EXTT2=
EXTT3=
EXTT4=
EXTT5=
EXTT6=
EXTT7=
EXTT8=
EXTT9=
PLAYORDER=
